<svg width="29" height="28" viewBox="0 0 29 28" fill="none" xmlns="http://www.w3.org/2000/svg">
<path id="Vector" d="M25.952 28H19.8895C18.4086 28 17.159 26.7977 17.159 25.2717V20.3699C17.159 20 16.8814 19.7225 16.5111 19.7225H12.8088C12.4386 19.7225 12.1609 20 12.1609 20.3699V25.2717C12.1609 26.7977 10.9577 28 9.43045 28H3.36791C1.88698 28 0.637451 26.7977 0.637451 25.2717V9.68786C0.637451 8.90173 1.00768 8.20809 1.65559 7.79191L13.4567 0.346821C14.1972 -0.115607 15.1228 -0.115607 15.8169 0.346821L27.6181 7.83815C28.266 8.25434 28.6362 8.94798 28.6362 9.7341V25.2717C28.6825 26.7514 27.433 28 25.952 28ZM12.8088 17.6416H16.5111C18.0383 17.6416 19.2416 18.8439 19.2416 20.3699V25.2717C19.2416 25.6416 19.5193 25.9191 19.8895 25.9191H25.952C26.3223 25.9191 26.5999 25.6416 26.5999 25.2717V9.68786C26.5999 9.64162 26.5537 9.59538 26.5537 9.54913L14.7062 2.10405C14.66 2.0578 14.6137 2.0578 14.5674 2.10405L2.81256 9.54913C2.76628 9.59538 2.72 9.64162 2.72 9.68786V25.2717C2.72 25.6416 2.99768 25.9191 3.36791 25.9191H9.43045C9.80068 25.9191 10.0784 25.6416 10.0784 25.2717V20.3699C10.0784 18.8902 11.2816 17.6416 12.8088 17.6416Z" fill="white"/>
</svg>
