<svg width="30" height="30" viewBox="0 0 20 20" fill="none" xmlns="http://www.w3.org/2000/svg">
<g id="Group">
<path id="Vector" d="M13.6249 6.84376C12.5624 5.84376 11.1874 5.34376 9.68739 5.43751C6.96864 5.59376 4.81239 7.84376 4.78114 10.5313C4.74989 12.25 5.56239 13.8125 6.90614 14.7813V17.0313C6.90614 18.1875 7.84364 19.0938 8.99989 19.0938H10.9374C12.0936 19.0938 13.0311 18.1563 13.0311 17.0313V14.8125C14.4061 13.8438 15.2186 12.2813 15.2186 10.5938C15.2499 9.18751 14.6561 7.84376 13.6249 6.84376ZM10.9686 17.7188H9.03114C8.65614 17.7188 8.34364 17.4063 8.34364 17.0625V15.1563H11.6874V17.0625C11.6561 17.4063 11.3436 17.7188 10.9686 17.7188ZM12.1561 13.7188H10.6874V12.875C10.6874 12.5 10.3749 12.1563 9.96864 12.1563C9.59364 12.1563 9.24989 12.4688 9.24989 12.875V13.7188H7.81239C6.74989 13 6.12489 11.8438 6.15614 10.5313C6.18739 8.56251 7.74989 6.93751 9.74989 6.81251C9.81239 6.81251 9.90614 6.81251 9.96864 6.81251C10.9999 6.81251 11.9061 7.15626 12.6249 7.84376C13.3749 8.56251 13.8124 9.56251 13.8124 10.5938C13.8436 11.875 13.2186 13.0313 12.1561 13.7188Z" fill="white"/>
<path id="Vector_2" d="M10 4.09375C10.375 4.09375 10.7187 3.78125 10.7187 3.375V1.59375C10.7187 1.21875 10.4062 0.875 10 0.875C9.625 0.875 9.28125 1.1875 9.28125 1.59375V3.40625C9.3125 3.78125 9.625 4.09375 10 4.09375Z" fill="white"/>
<path id="Vector_3" d="M18.125 5.125C18.4063 4.84375 18.4063 4.40625 18.125 4.125C17.8438 3.84375 17.4063 3.84375 17.125 4.125L15.875 5.34375C15.5937 5.625 15.5937 6.0625 15.875 6.34375C16 6.46875 16.1875 6.5625 16.375 6.5625C16.5625 6.5625 16.7188 6.5 16.875 6.375L18.125 5.125Z" fill="white"/>
<path id="Vector_4" d="M2.875 4.125C2.59375 3.84375 2.15625 3.84375 1.875 4.125C1.59375 4.40625 1.59375 4.84375 1.875 5.125L3.09375 6.34375C3.21875 6.46875 3.40625 6.5625 3.59375 6.5625C3.78125 6.5625 3.96875 6.5 4.09375 6.34375C4.375 6.0625 4.375 5.625 4.09375 5.34375L2.875 4.125Z" fill="white"/>
<path id="Vector_5" d="M2.75 11.2188H0.9375C0.5625 11.2188 0.21875 11.5312 0.21875 11.9375C0.21875 12.3438 0.53125 12.6562 0.9375 12.6562H2.75C3.125 12.6562 3.46875 12.3438 3.46875 11.9375C3.46875 11.5312 3.125 11.2188 2.75 11.2188Z" fill="white"/>
<path id="Vector_6" d="M19.0625 11.2188H17.25C16.875 11.2188 16.5312 11.5312 16.5312 11.9375C16.5312 12.3438 16.8437 12.6562 17.25 12.6562H19.0625C19.4375 12.6562 19.7812 12.3438 19.7812 11.9375C19.7812 11.5312 19.4375 11.2188 19.0625 11.2188Z" fill="white"/>
</g>
</svg>
