<svg width="18" height="17" viewBox="0 0 18 17" fill="none" xmlns="http://www.w3.org/2000/svg">
<g id="Group">
<path id="Vector" d="M2.36244 7.63602C2.44682 7.63602 2.55932 7.60624 2.64369 7.57646L5.76557 6.41506C6.10307 6.29595 6.27182 5.90881 6.15932 5.55146C6.04682 5.19411 5.68119 5.01543 5.34369 5.13455L3.40307 5.84926C4.33119 3.28823 6.69369 1.56102 9.39369 1.56102C12.3468 1.56102 14.9062 3.64558 15.6374 6.62352C15.7218 6.98087 16.0593 7.18933 16.3968 7.09999C16.7343 7.01065 16.9312 6.6533 16.8468 6.29595C15.9749 2.72242 12.9093 0.220947 9.36557 0.220947C6.21557 0.220947 3.43119 2.18639 2.27807 5.13455L1.68744 3.34779C1.57494 2.99043 1.20932 2.81176 0.871818 2.93087C0.534318 3.04999 0.365568 3.43712 0.478068 3.79448L1.54682 7.04043C1.71557 7.42756 2.02494 7.63602 2.36244 7.63602Z" fill="black"/>
<path id="Vector_2" d="M17.4655 13.8004L16.3123 10.614C16.228 10.4055 16.0873 10.2268 15.8905 10.1375C15.6936 10.0482 15.4686 10.0482 15.2717 10.1375L12.178 11.3882C11.8405 11.5074 11.6998 11.8945 11.8123 12.2518C11.9248 12.6092 12.2905 12.7581 12.628 12.639L14.5686 11.8647C13.4436 14.0386 11.2498 15.468 8.80297 15.468C6.0186 15.468 3.57172 13.6217 2.69985 10.882C2.58735 10.5246 2.22172 10.346 1.91235 10.4651C1.57485 10.5842 1.4061 10.9713 1.5186 11.2989C2.55922 14.5746 5.48422 16.7783 8.80297 16.7783C11.6998 16.7783 14.3155 15.0809 15.6373 12.4603L16.2842 14.2768C16.3686 14.5449 16.6217 14.6937 16.8748 14.6937C16.9592 14.6937 17.0155 14.6937 17.0998 14.6342C17.4373 14.5449 17.578 14.1577 17.4655 13.8004Z" fill="black"/>
</g>
</svg>
