<svg width="29" height="28" viewBox="0 0 29 28" fill="none" xmlns="http://www.w3.org/2000/svg">
<g id="Group">
<path id="Vector" d="M14.6143 6.34052C12.0689 6.34052 9.98621 8.37688 9.98621 10.8298C9.98621 13.2827 12.0689 15.3653 14.6143 15.3653C17.1598 15.3653 19.2424 13.3289 19.2424 10.8761C19.2424 8.42316 17.1598 6.34052 14.6143 6.34052ZM14.6143 13.2827C13.2259 13.2827 12.0689 12.2182 12.0689 10.8761C12.0689 9.5339 13.2259 8.42316 14.6143 8.42316C16.0027 8.42316 17.1598 9.48762 17.1598 10.8298C17.1598 12.1719 16.0027 13.2827 14.6143 13.2827Z" fill="white"/>
<path id="Vector_2" d="M14.6143 0C6.88539 0 0.637451 6.24793 0.637451 13.9769C0.637451 21.7058 6.88539 28 14.6143 28C22.3432 28 28.6375 21.7058 28.6375 13.9769C28.6375 6.24793 22.3432 0 14.6143 0ZM8.96803 24.4364V20.6413C8.96803 19.1603 10.1713 17.957 11.6523 17.957H17.6689C19.1498 17.957 20.3532 19.1603 20.3532 20.6413V24.4364C18.687 25.362 16.7432 25.8711 14.6606 25.8711C12.5779 25.9174 10.6341 25.362 8.96803 24.4364ZM22.3895 23.0017V20.6413C22.3895 18.0033 20.2606 15.8744 17.6226 15.8744H11.606C8.96803 15.8744 6.8391 18.0033 6.8391 20.6413V23.0017C4.29365 20.8264 2.67381 17.5868 2.67381 13.9769C2.7201 7.40496 8.04241 2.08264 14.6143 2.08264C21.1862 2.08264 26.5548 7.45124 26.5548 14.0231C26.5548 17.5868 24.935 20.8264 22.3895 23.0017Z" fill="white"/>
</g>
</svg>
