<svg width="28" height="28" viewBox="0 0 24 24" fill="none" xmlns="http://www.w3.org/2000/svg">
<g id="Group">
<path id="Vector" d="M16.6125 11.1562H12.825V7.33125C12.825 6.88125 12.45 6.46875 11.9625 6.46875C11.5125 6.46875 11.1 6.84375 11.1 7.33125V11.1188H7.31245C6.86245 11.1188 6.44995 11.4938 6.44995 11.9813C6.44995 12.4313 6.82495 12.8438 7.31245 12.8438H11.1V16.6313C11.1 17.0813 11.475 17.4938 11.9625 17.4938C12.4125 17.4938 12.825 17.1188 12.825 16.6313V12.8438H16.6125C17.0625 12.8438 17.475 12.4688 17.475 11.9813C17.4375 11.5313 17.0625 11.1562 16.6125 11.1562Z" fill="white
"/>
<path id="Vector_2" d="M20.9625 0.65625H2.96245C1.68745 0.65625 0.637451 1.70625 0.637451 2.98125V20.9813C0.637451 22.2563 1.68745 23.3438 2.99995 23.3438H21C22.275 23.3438 23.3625 22.2938 23.3625 20.9813V2.98125C23.325 1.70625 22.2375 0.65625 20.9625 0.65625ZM21.6375 20.9813C21.6375 21.3563 21.3375 21.6562 20.9625 21.6562H2.96245C2.58745 21.6562 2.28745 21.3563 2.28745 20.9813V2.98125C2.32495 2.60625 2.58745 2.34375 2.96245 2.34375H20.9625C21.3375 2.34375 21.6375 2.64375 21.6375 3.01875V20.9813Z" fill="white
"/>
</g>
</svg>
