<svg width="14" height="18" viewBox="0 0 14 18" fill="none" xmlns="http://www.w3.org/2000/svg">
<g id="Group">
<path id="Vector" d="M1.26255 17.5219C1.15005 17.5219 1.03755 17.4937 0.953174 17.4375C0.756299 17.325 0.643799 17.1281 0.643799 16.875V2.24999C0.643799 1.29374 1.4313 0.478119 2.41567 0.478119H11.6688C12.625 0.478119 13.4407 1.26562 13.4407 2.24999V16.8469C13.4407 17.0719 13.3282 17.2687 13.1313 17.3812C12.9344 17.4937 12.6813 17.4937 12.5125 17.3812L7.00005 14.2594L1.57192 17.4094C1.45942 17.4656 1.34692 17.5219 1.26255 17.5219ZM2.38755 1.77187C2.1063 1.77187 1.8813 1.99687 1.8813 2.27812V15.8062L6.69067 13.0219C6.88755 12.9094 7.14067 12.9094 7.33755 13.0219L12.1188 15.75V2.24999C12.1188 1.96874 11.8938 1.74374 11.6125 1.74374H2.38755V1.77187Z" fill="black
"/>
</g>
</svg>
